<svg width="25" height="25" viewBox="0 0 25 25" fill="none" xmlns="http://www.w3.org/2000/svg">
<path fill-rule="evenodd" clip-rule="evenodd" d="M3.8552 5.53399C4.06517 5.27788 4.3789 5.12939 4.71008 5.12939H21.2247C21.7138 5.12941 22.1975 5.23191 22.6445 5.43028C23.0916 5.62865 23.4921 5.9185 23.8202 6.28112C24.1484 6.64375 24.3969 7.07112 24.5498 7.53568C24.7027 8.00024 24.7565 8.49168 24.7079 8.97833L23.9893 16.1638C23.903 17.0276 23.4987 17.8285 22.8551 18.411C22.2114 18.9935 21.3743 19.3161 20.5062 19.3161H9.06972C9.06957 19.3161 9.06986 19.3161 9.06972 19.3161C8.2603 19.3163 7.47538 19.0361 6.84935 18.523C6.22323 18.0098 5.79431 17.2955 5.63562 16.5017C5.63562 16.5017 5.63563 16.5017 5.63562 16.5017L3.62608 6.4516C3.56115 6.12685 3.64523 5.7901 3.8552 5.53399ZM6.05846 7.34031L7.80363 16.0682C7.86208 16.3607 8.02012 16.6239 8.25081 16.813C8.4815 17.0021 8.77058 17.1053 9.06884 17.1052H20.5061C20.5061 17.1052 20.5061 17.1052 20.5061 17.1052C20.8259 17.1052 21.1344 16.9863 21.3715 16.7717C21.6086 16.5571 21.7576 16.2621 21.7894 15.9438L22.5079 8.75834C22.5259 8.57905 22.506 8.39799 22.4497 8.22684C22.3934 8.05569 22.3018 7.89824 22.1809 7.76463C22.06 7.63103 21.9124 7.52425 21.7477 7.45117C21.5831 7.37809 21.4049 7.34033 21.2247 7.34031C21.2247 7.34031 21.2247 7.34031 21.2247 7.34031H6.05846Z" fill="white"/>
<path fill-rule="evenodd" clip-rule="evenodd" d="M0.0119019 1.44433C0.0119019 0.833798 0.506833 0.338867 1.11736 0.338867H2.57841C3.09182 0.338881 3.59054 0.510449 3.99529 0.826318C4.40003 1.14219 4.68763 1.58424 4.81239 2.08227L5.78261 5.96677C5.93056 6.5591 5.57032 7.15921 4.97798 7.30716C4.38565 7.45511 3.78554 7.09486 3.63759 6.50253L2.66774 2.61952C2.66772 2.61946 2.66776 2.61959 2.66774 2.61952C2.66272 2.59968 2.65119 2.58188 2.63505 2.56928C2.61887 2.55665 2.59894 2.54979 2.57841 2.54979C2.5784 2.54979 2.57842 2.54979 2.57841 2.54979H1.11736C0.506833 2.54979 0.0119019 2.05485 0.0119019 1.44433Z" fill="white"/>
<path fill-rule="evenodd" clip-rule="evenodd" d="M7.19739 23.0007C7.19739 22.3902 7.69232 21.8953 8.30285 21.8953H10.6973C11.3078 21.8953 11.8028 22.3902 11.8028 23.0007C11.8028 23.6113 11.3078 24.1062 10.6973 24.1062H8.30285C7.69232 24.1062 7.19739 23.6113 7.19739 23.0007Z" fill="white"/>
<path fill-rule="evenodd" clip-rule="evenodd" d="M16.778 23.0007C16.778 22.3902 17.2729 21.8953 17.8835 21.8953H20.2779C20.8885 21.8953 21.3834 22.3902 21.3834 23.0007C21.3834 23.6113 20.8885 24.1062 20.2779 24.1062H17.8835C17.2729 24.1062 16.778 23.6113 16.778 23.0007Z" fill="white"/>
</svg>
