<svg width="15" height="15" fill="none" xmlns="http://www.w3.org/2000/svg"><path fill-rule="evenodd" clip-rule="evenodd" d="M14.468 7.912a7.082 7.082 0 01-.557 2.75 7.132 7.132 0 01-2.562 3.108 7.156 7.156 0 01-1.202.651 7.116 7.116 0 01-4.179.411 7.095 7.095 0 01-2.531-1.062 7.13 7.13 0 01-2.562-3.108A7.043 7.043 0 01.46 6.49a7.025 7.025 0 011.067-2.53 7.133 7.133 0 011.91-1.907A7.006 7.006 0 015.969.99a7.13 7.13 0 014.178.412 7.1 7.1 0 014.177 5.088c.095.464.144.943.144 1.422zM4.815 2.455A6.043 6.043 0 001.48 6.668c.16.001 2.678.033 5.579-.736a36.327 36.327 0 00-2.244-3.477zM7.559 6.86c-3.11.93-6.096.863-6.203.859-.002.064-.005.127-.005.192 0 1.55.586 2.963 1.548 4.031-.002-.003 1.651-2.932 4.912-3.985.079-.026.159-.05.238-.072a20.396 20.396 0 00-.49-1.025zm3.824-3.477a6.018 6.018 0 00-3.99-1.505c-.491 0-.967.06-1.424.17.09.12 1.226 1.624 2.259 3.519 2.28-.854 3.14-2.162 3.155-2.184zM8.461 8.886l-.04.013c-3.565 1.24-4.729 3.742-4.742 3.769a6.035 6.035 0 006.073.799 25.12 25.12 0 00-1.29-4.581zm2.308 4.03a6.035 6.035 0 002.59-4.048 8.778 8.778 0 00-3.766-.262 26.083 26.083 0 011.176 4.31zm-2.076-6.45a19.025 19.025 0 01.532 1.188c2.076-.26 4.12.178 4.208.196a5.998 5.998 0 00-1.374-3.77c-.011.016-.98 1.414-3.366 2.387z" fill="#fff"/></svg>