<svg width="25" height="25" fill="none" xmlns="http://www.w3.org/2000/svg"><path fill-rule="evenodd" clip-rule="evenodd" d="M3.855 5.534c.21-.256.524-.405.855-.405h16.515a3.5 3.5 0 013.483 3.85l-.719 7.185a3.5 3.5 0 01-3.483 3.152H9.07a3.502 3.502 0 01-3.434-2.814l-2.01-10.05c-.065-.325.02-.662.23-.918zM6.058 7.34l1.746 8.728a1.29 1.29 0 001.265 1.037h11.437a1.29 1.29 0 001.283-1.161l.719-7.186a1.289 1.289 0 00-1.283-1.418H6.058z" fill="#fff"/><path fill-rule="evenodd" clip-rule="evenodd" d="M.012 1.444C.012.834.507.34 1.117.34h1.461a2.303 2.303 0 012.234 1.743l.97 3.885a1.105 1.105 0 11-2.144.536l-.97-3.883a.093.093 0 00-.09-.07h-1.46A1.107 1.107 0 01.011 1.444zM7.197 23c0-.61.495-1.105 1.106-1.105h2.394a1.105 1.105 0 110 2.211H8.303c-.61 0-1.106-.495-1.106-1.105zm9.581 0c0-.61.495-1.105 1.106-1.105h2.394a1.105 1.105 0 110 2.211h-2.394a1.106 1.106 0 01-1.106-1.105z" fill="#fff"/></svg>