<svg width="15" height="15" fill="none" xmlns="http://www.w3.org/2000/svg"><path fill-rule="evenodd" clip-rule="evenodd" d="M7.176.847c-1.922 0-2.163.008-2.918.043-.753.034-1.267.153-1.717.328-.465.181-.86.423-1.253.816A3.473 3.473 0 00.47 3.287c-.175.45-.295.965-.328 1.718C.109 5.759.1 6 .1 7.922c0 1.921.009 2.162.043 2.917.034.753.154 1.267.328 1.717.181.465.423.86.816 1.253.394.394.788.636 1.253.817.45.175.965.294 1.718.328.754.034.995.043 2.917.043 1.921 0 2.162-.008 2.916-.043.754-.034 1.268-.154 1.718-.329a3.46 3.46 0 001.253-.816c.393-.393.635-.788.816-1.253.174-.45.294-.964.33-1.717.033-.755.042-.996.042-2.917 0-1.922-.009-2.163-.043-2.917-.035-.754-.155-1.268-.329-1.717a3.472 3.472 0 00-.816-1.254 3.458 3.458 0 00-1.253-.816c-.451-.175-.965-.294-1.719-.328C9.336.855 9.095.847 7.173.847h.003zM6.54 2.122h.635c1.889 0 2.112.007 2.858.04.69.032 1.065.147 1.314.244.33.128.566.282.813.53.248.247.401.483.53.813.096.25.212.623.243 1.313.034.746.041.97.041 2.858 0 1.888-.007 2.113-.04 2.858-.032.69-.148 1.064-.245 1.314-.128.33-.281.565-.529.812a2.187 2.187 0 01-.813.53c-.25.097-.624.212-1.314.243-.745.034-.97.042-2.858.042-1.89 0-2.114-.008-2.86-.042-.69-.031-1.064-.147-1.313-.244a2.193 2.193 0 01-.814-.529 2.193 2.193 0 01-.53-.813c-.096-.25-.211-.623-.243-1.313-.034-.746-.04-.97-.04-2.86 0-1.889.006-2.112.04-2.857.032-.69.147-1.065.244-1.314.128-.33.282-.566.53-.814.247-.247.483-.4.813-.53.25-.096.624-.211 1.314-.243.652-.03.905-.038 2.224-.04v.002zm4.411 1.175a.849.849 0 100 1.697.849.849 0 000-1.697zm-3.776.992a3.633 3.633 0 100 7.267 3.633 3.633 0 000-7.267zm0 1.275a2.358 2.358 0 110 4.716 2.358 2.358 0 010-4.716z" fill="#fff"/></svg>