<svg width="14" height="12" fill="none" xmlns="http://www.w3.org/2000/svg"><path fill-rule="evenodd" clip-rule="evenodd" d="M7.214 3.439l.028.459-.464-.057c-1.688-.215-3.164-.946-4.416-2.173l-.613-.609-.158.45c-.334 1.002-.12 2.06.576 2.773.37.393.287.45-.353.215-.223-.075-.417-.131-.436-.103-.065.066.158.918.334 1.255.241.469.733.928 1.271 1.2l.455.215-.538.01c-.52 0-.538.009-.483.205.186.61.919 1.256 1.735 1.537l.576.196-.501.3a5.224 5.224 0 01-2.487.693c-.418.01-.761.047-.761.075 0 .094 1.132.618 1.79.825 1.977.609 4.325.346 6.088-.694 1.252-.74 2.505-2.21 3.09-3.634.315-.76.63-2.145.63-2.81 0-.431.028-.488.548-1.003.306-.3.594-.628.65-.721.092-.178.083-.178-.39-.019-.789.281-.9.244-.51-.178.287-.3.63-.843.63-1.002 0-.028-.139.018-.296.103a5.178 5.178 0 01-.817.318l-.501.16-.455-.31c-.25-.168-.603-.356-.788-.412C10.174.572 9.45.591 9.024.741c-1.16.421-1.893 1.508-1.81 2.698z" fill="#fff"/></svg>