<svg width="15" height="11" fill="none" xmlns="http://www.w3.org/2000/svg"><path fill-rule="evenodd" clip-rule="evenodd" d="M13.358.361c.61.168 1.089.66 1.251 1.285.296 1.133.296 3.497.296 3.497s0 2.364-.296 3.497a1.797 1.797 0 01-1.25 1.285c-1.104.303-5.529.303-5.529.303s-4.425 0-5.528-.303A1.797 1.797 0 011.05 8.64C.755 7.507.755 5.143.755 5.143s0-2.364.296-3.497A1.796 1.796 0 012.3.361C3.406.058 7.832.058 7.832.058s4.424 0 5.527.303zM6.504 3.153v4.422l3.537-2.21-3.537-2.212z" fill="#fff"/></svg>